TITLE ""
FILE "1Q_t_0820-0828.mp3" MP3
  TRACK 01 AUDIO
    TITLE "1Q_t_0820-0828_01"
    INDEX 01 00:00:00
  TRACK 02 AUDIO
    TITLE "1Q_t_0820-0828_02"
    INDEX 01 00:01:33
  TRACK 03 AUDIO
    TITLE "1Q_t_0820-0828_03"
    INDEX 01 00:01:41
  TRACK 04 AUDIO
    TITLE "1Q_t_0820-0828_04"
    INDEX 01 00:03:11
  TRACK 05 AUDIO
    TITLE "1Q_t_0820-0828_05"
    INDEX 01 00:03:18
  TRACK 06 AUDIO
    TITLE "1Q_t_0820-0828_06"
    INDEX 01 00:09:27
  TRACK 07 AUDIO
    TITLE "1Q_t_0820-0828_07"
    INDEX 01 00:09:72
  TRACK 08 AUDIO
    TITLE "1Q_t_0820-0828_08"
    INDEX 01 00:11:28
  TRACK 09 AUDIO
    TITLE "1Q_t_0820-0828_09"
    INDEX 01 00:11:39
  TRACK 10 AUDIO
    TITLE "1Q_t_0820-0828_10"
    INDEX 01 00:13:17
  TRACK 11 AUDIO
    TITLE "1Q_t_0820-0828_11"
    INDEX 01 00:13:25
  TRACK 12 AUDIO
    TITLE "1Q_t_0820-0828_12"
    INDEX 01 00:20:09
  TRACK 13 AUDIO
    TITLE "1Q_t_0820-0828_13"
    INDEX 01 00:20:54
  TRACK 14 AUDIO
    TITLE "1Q_t_0820-0828_14"
    INDEX 01 00:22:02
  TRACK 15 AUDIO
    TITLE "1Q_t_0820-0828_15"
    INDEX 01 00:22:10
  TRACK 16 AUDIO
    TITLE "1Q_t_0820-0828_16"
    INDEX 01 00:25:36
  TRACK 17 AUDIO
    TITLE "1Q_t_0820-0828_17"
    INDEX 01 00:25:46
  TRACK 18 AUDIO
    TITLE "1Q_t_0820-0828_18"
    INDEX 01 00:31:56
  TRACK 19 AUDIO
    TITLE "1Q_t_0820-0828_19"
    INDEX 01 00:32:26
  TRACK 20 AUDIO
    TITLE "1Q_t_0820-0828_20"
    INDEX 01 00:33:53
  TRACK 21 AUDIO
    TITLE "1Q_t_0820-0828_21"
    INDEX 01 00:33:61
  TRACK 22 AUDIO
    TITLE "1Q_t_0820-0828_22"
    INDEX 01 00:37:02
  TRACK 23 AUDIO
    TITLE "1Q_t_0820-0828_23"
    INDEX 01 00:37:08
  TRACK 24 AUDIO
    TITLE "1Q_t_0820-0828_24"
    INDEX 01 00:43:08
  TRACK 25 AUDIO
    TITLE "1Q_t_0820-0828_25"
    INDEX 01 00:43:53
  TRACK 26 AUDIO
    TITLE "1Q_t_0820-0828_26"
    INDEX 01 00:44:60
  TRACK 27 AUDIO
    TITLE "1Q_t_0820-0828_27"
    INDEX 01 00:45:33
  TRACK 28 AUDIO
    TITLE "1Q_t_0820-0828_28"
    INDEX 01 00:46:30
  TRACK 29 AUDIO
    TITLE "1Q_t_0820-0828_29"
    INDEX 01 00:46:42
  TRACK 30 AUDIO
    TITLE "1Q_t_0820-0828_30"
    INDEX 01 00:48:33
  TRACK 31 AUDIO
    TITLE "1Q_t_0820-0828_31"
    INDEX 01 00:48:41
  TRACK 32 AUDIO
    TITLE "1Q_t_0820-0828_32"
    INDEX 01 00:54:35
  TRACK 33 AUDIO
    TITLE "1Q_t_0820-0828_33"
    INDEX 01 00:55:05
  TRACK 34 AUDIO
    TITLE "1Q_t_0820-0828_34"
    INDEX 01 00:56:36
  TRACK 35 AUDIO
    TITLE "1Q_t_0820-0828_35"
    INDEX 01 00:56:44
  TRACK 36 AUDIO
    TITLE "1Q_t_0820-0828_36"
    INDEX 01 01:00:32
  TRACK 37 AUDIO
    TITLE "1Q_t_0820-0828_37"
    INDEX 01 01:00:40
  TRACK 38 AUDIO
    TITLE "1Q_t_0820-0828_38"
    INDEX 01 01:07:28
  TRACK 39 AUDIO
    TITLE "1Q_t_0820-0828_39"
    INDEX 01 01:07:73
  TRACK 40 AUDIO
    TITLE "1Q_t_0820-0828_40"
    INDEX 01 01:09:27
  TRACK 41 AUDIO
    TITLE "1Q_t_0820-0828_41"
    INDEX 01 01:09:35
  TRACK 42 AUDIO
    TITLE "1Q_t_0820-0828_42"
    INDEX 01 01:10:52
  TRACK 43 AUDIO
    TITLE "1Q_t_0820-0828_43"
    INDEX 01 01:10:60
  TRACK 44 AUDIO
    TITLE "1Q_t_0820-0828_44"
    INDEX 01 01:16:74
  TRACK 45 AUDIO
    TITLE "1Q_t_0820-0828_45"
    INDEX 01 01:17:46
  TRACK 46 AUDIO
    TITLE "1Q_t_0820-0828_46"
    INDEX 01 01:18:69
  TRACK 47 AUDIO
    TITLE "1Q_t_0820-0828_47"
    INDEX 01 01:19:02
  TRACK 48 AUDIO
    TITLE "1Q_t_0820-0828_48"
    INDEX 01 01:21:40
  TRACK 49 AUDIO
    TITLE "1Q_t_0820-0828_49"
    INDEX 01 01:21:46
  TRACK 50 AUDIO
    TITLE "1Q_t_0820-0828_50"
    INDEX 01 01:26:49
  TRACK 51 AUDIO
    TITLE "1Q_t_0820-0828_51"
    INDEX 01 01:27:19
  TRACK 52 AUDIO
    TITLE "1Q_t_0820-0828_52"
    INDEX 01 01:28:32
  TRACK 53 AUDIO
    TITLE "1Q_t_0820-0828_53"
    INDEX 01 01:28:42
  TRACK 54 AUDIO
    TITLE "1Q_t_0820-0828_54"
    INDEX 01 01:30:68
  TRACK 55 AUDIO
    TITLE "1Q_t_0820-0828_55"
    INDEX 01 01:31:01
  TRACK 56 AUDIO
    TITLE "1Q_t_0820-0828_56"
    INDEX 01 01:35:64
